<svg width="184" height="39" viewBox="0 0 184 39" fill="none" xmlns="http://www.w3.org/2000/svg">
<path d="M56.7 28.925L65.75 17.85H57.05V14.25H70.675V17.325L62.05 28.4H70.775V32H56.7V28.925ZM80.7826 32.15C79.4493 32.15 78.241 31.9 77.1576 31.4C76.091 30.8833 75.166 30.2 74.3826 29.35C73.616 28.4833 73.0243 27.5167 72.6076 26.45C72.191 25.3667 71.9826 24.25 71.9826 23.1C71.9826 21.9167 72.1993 20.7917 72.6326 19.725C73.0826 18.6583 73.6993 17.7083 74.4826 16.875C75.2826 16.025 76.2243 15.3583 77.3076 14.875C78.391 14.3917 79.5743 14.15 80.8576 14.15C82.1743 14.15 83.366 14.4083 84.4326 14.925C85.516 15.425 86.441 16.1083 87.2076 16.975C87.991 17.8417 88.591 18.8167 89.0076 19.9C89.4243 20.9667 89.6326 22.0583 89.6326 23.175C89.6326 24.3583 89.416 25.4833 88.9826 26.55C88.5493 27.6167 87.9326 28.575 87.1326 29.425C86.3326 30.2583 85.391 30.925 84.3076 31.425C83.241 31.9083 82.066 32.15 80.7826 32.15ZM76.1576 23.15C76.1576 23.8333 76.2576 24.5 76.4576 25.15C76.6576 25.7833 76.9493 26.35 77.3326 26.85C77.7326 27.35 78.2243 27.75 78.8076 28.05C79.391 28.35 80.0576 28.5 80.8076 28.5C81.591 28.5 82.2743 28.35 82.8576 28.05C83.441 27.7333 83.9243 27.3167 84.3076 26.8C84.691 26.2833 84.9743 25.7083 85.1576 25.075C85.3576 24.425 85.4576 23.7667 85.4576 23.1C85.4576 22.4167 85.3576 21.7583 85.1576 21.125C84.9576 20.4917 84.6576 19.925 84.2576 19.425C83.8576 18.9083 83.366 18.5083 82.7826 18.225C82.1993 17.9417 81.541 17.8 80.8076 17.8C80.0243 17.8 79.341 17.95 78.7576 18.25C78.191 18.55 77.7076 18.9583 77.3076 19.475C76.9243 19.975 76.6326 20.55 76.4326 21.2C76.2493 21.8333 76.1576 22.4833 76.1576 23.15ZM99.7768 32.15C98.4434 32.15 97.2351 31.9 96.1518 31.4C95.0851 30.8833 94.1601 30.2 93.3768 29.35C92.6101 28.4833 92.0184 27.5167 91.6018 26.45C91.1851 25.3667 90.9768 24.25 90.9768 23.1C90.9768 21.9167 91.1934 20.7917 91.6268 19.725C92.0768 18.6583 92.6934 17.7083 93.4768 16.875C94.2768 16.025 95.2184 15.3583 96.3018 14.875C97.3851 14.3917 98.5684 14.15 99.8518 14.15C101.168 14.15 102.36 14.4083 103.427 14.925C104.51 15.425 105.435 16.1083 106.202 16.975C106.985 17.8417 107.585 18.8167 108.002 19.9C108.418 20.9667 108.627 22.0583 108.627 23.175C108.627 24.3583 108.41 25.4833 107.977 26.55C107.543 27.6167 106.927 28.575 106.127 29.425C105.327 30.2583 104.385 30.925 103.302 31.425C102.235 31.9083 101.06 32.15 99.7768 32.15ZM95.1518 23.15C95.1518 23.8333 95.2518 24.5 95.4518 25.15C95.6518 25.7833 95.9434 26.35 96.3268 26.85C96.7268 27.35 97.2184 27.75 97.8018 28.05C98.3851 28.35 99.0518 28.5 99.8018 28.5C100.585 28.5 101.268 28.35 101.852 28.05C102.435 27.7333 102.918 27.3167 103.302 26.8C103.685 26.2833 103.968 25.7083 104.152 25.075C104.352 24.425 104.452 23.7667 104.452 23.1C104.452 22.4167 104.352 21.7583 104.152 21.125C103.952 20.4917 103.652 19.925 103.252 19.425C102.852 18.9083 102.36 18.5083 101.777 18.225C101.193 17.9417 100.535 17.8 99.8018 17.8C99.0184 17.8 98.3351 17.95 97.7518 18.25C97.1851 18.55 96.7018 18.9583 96.3018 19.475C95.9184 19.975 95.6268 20.55 95.4268 21.2C95.2434 21.8333 95.1518 22.4833 95.1518 23.15ZM124.996 32V21.425L121.171 29.125H118.921L115.096 21.425V32H110.996V14.25H115.446L120.046 23.525L124.671 14.25H129.096V32H124.996ZM146.03 17.85H140.63V32H136.53V17.85H131.105V14.25H146.03V17.85ZM160.507 28.4V32H148.032V14.25H160.282V17.85H152.132V21.3H159.132V24.625H152.132V28.4H160.507ZM162.998 32V14.25H167.098V21.9L173.598 14.25H178.198L171.548 22.175L178.648 32H173.948L168.948 24.875L167.098 26.775V32H162.998Z" fill="white"/>
<path fill-rule="evenodd" clip-rule="evenodd" d="M20.0546 27.1309C23.1374 24.0568 24.179 19.7101 23.18 15.774C22.8512 14.414 22.28 13.1007 21.4622 11.9044C22.1654 11.775 22.889 11.7051 23.6297 11.7063L27.4958 11.7135L28.9727 15.298C31.4552 21.3238 28.5866 28.2227 22.5659 30.7074L11.9384 35.0921L20.0546 27.1309Z" fill="#0AAB6E"/>
<path fill-rule="evenodd" clip-rule="evenodd" d="M20.0303 25.6281C19.8173 25.883 19.5929 26.131 19.3532 26.3704L11.3492 34.3514L11.1905 34.5097L11.2316 23.3242C11.2421 17.7684 15.2411 13.1548 20.5112 12.1855C23.2922 16.2529 23.1299 21.7259 20.0303 25.6281Z" fill="#FFAA00"/>
<path fill-rule="evenodd" clip-rule="evenodd" d="M16.5301 7.93549L19.3831 10.8018C19.4881 10.9072 19.5886 11.0156 19.6885 11.1246C19.9855 11.466 20.2612 11.8197 20.5114 12.1857C15.241 13.155 11.2423 17.7686 11.2318 23.3244L11.1904 34.5096L6.94116 24.1708C4.55376 18.376 7.31196 11.7398 13.1032 9.35004L16.5301 7.93549Z" fill="#FFC800"/>
<path fill-rule="evenodd" clip-rule="evenodd" d="M16.5301 7.93547L13.1032 9.35002C7.31197 11.7398 4.55377 18.376 6.94117 24.1708L11.1904 34.5096L11.1886 34.5117L3.30607 26.5925C-1.11383 22.1521 -1.10033 14.9647 3.33697 10.5397L11.2594 2.64029L16.5301 7.93547Z" fill="#FFE600"/>
<path fill-rule="evenodd" clip-rule="evenodd" d="M21.6154 12.1354C21.1843 11.5438 20.5957 10.7908 20.0785 10.229L17.4535 7.59175L24.5272 4.50803L27.6517 12.0915L23.6956 12.0906C22.9549 12.0891 22.4947 12.1354 21.6154 12.1354Z" fill="#22D167"/>
<path fill-rule="evenodd" clip-rule="evenodd" d="M23.1904 31.4584C24.7624 30.8356 26.1328 29.9171 27.2599 28.7929C28.8409 27.2162 29.9437 25.2351 30.4672 23.0918C30.4894 23.0071 30.5077 22.9212 30.5278 22.8359L30.5392 22.7879L30.5404 22.7804C31.0702 20.4779 30.9904 17.9975 30.142 15.6566L28.9987 12.8812L28.7233 12.1855H36.2608L36.2389 23.746C36.2269 30.2642 30.9019 35.7275 24.3892 35.7152L12.6223 35.76L23.1904 31.4584Z" fill="#4D96E5"/>
</svg>
